<mxfile host="Electron" modified="2024-10-25T15:48:24.809Z" agent="Mozilla/5.0 (Windows NT 10.0; Win64; x64) AppleWebKit/537.36 (KHTML, like Gecko) draw.io/21.1.2 Chrome/106.0.5249.199 Electron/21.4.3 Safari/537.36" etag="M-xNqmTBTWPioAi6bv57" version="21.1.2" type="device" pages="2">
  <diagram id="fRW8w1BYCVWvNPVW3TLo" name="bus_to_cpu">
    <mxGraphModel dx="1418" dy="828" grid="1" gridSize="10" guides="1" tooltips="1" connect="1" arrows="1" fold="1" page="1" pageScale="1" pageWidth="850" pageHeight="1100" math="0" shadow="0">
      <root>
        <mxCell id="0" />
        <mxCell id="1" parent="0" />
        <mxCell id="BZ4Y8waS69euHN2otkhc-49" value="" style="rounded=1;whiteSpace=wrap;html=1;" vertex="1" parent="1">
          <mxGeometry x="60" y="470" width="510" height="380" as="geometry" />
        </mxCell>
        <mxCell id="BZ4Y8waS69euHN2otkhc-48" value="" style="rounded=1;whiteSpace=wrap;html=1;" vertex="1" parent="1">
          <mxGeometry x="30" y="100" width="380" height="280" as="geometry" />
        </mxCell>
        <mxCell id="qK8E-2dmee1bc-UuP0pq-2" value="" style="shape=table;startSize=0;container=1;collapsible=0;childLayout=tableLayout;" parent="1" vertex="1">
          <mxGeometry x="182" y="130" width="160" height="80" as="geometry" />
        </mxCell>
        <mxCell id="qK8E-2dmee1bc-UuP0pq-3" value="" style="shape=tableRow;horizontal=0;startSize=0;swimlaneHead=0;swimlaneBody=0;strokeColor=inherit;top=0;left=0;bottom=0;right=0;collapsible=0;dropTarget=0;fillColor=none;points=[[0,0.5],[1,0.5]];portConstraint=eastwest;" parent="qK8E-2dmee1bc-UuP0pq-2" vertex="1">
          <mxGeometry width="160" height="40" as="geometry" />
        </mxCell>
        <mxCell id="qK8E-2dmee1bc-UuP0pq-4" value="Address 0" style="shape=partialRectangle;html=1;whiteSpace=wrap;connectable=0;strokeColor=inherit;overflow=hidden;fillColor=none;top=0;left=0;bottom=0;right=0;pointerEvents=1;" parent="qK8E-2dmee1bc-UuP0pq-3" vertex="1">
          <mxGeometry width="80" height="40" as="geometry">
            <mxRectangle width="80" height="40" as="alternateBounds" />
          </mxGeometry>
        </mxCell>
        <mxCell id="qK8E-2dmee1bc-UuP0pq-5" value="Address 1" style="shape=partialRectangle;html=1;whiteSpace=wrap;connectable=0;strokeColor=inherit;overflow=hidden;fillColor=none;top=0;left=0;bottom=0;right=0;pointerEvents=1;" parent="qK8E-2dmee1bc-UuP0pq-3" vertex="1">
          <mxGeometry x="80" width="80" height="40" as="geometry">
            <mxRectangle width="80" height="40" as="alternateBounds" />
          </mxGeometry>
        </mxCell>
        <mxCell id="qK8E-2dmee1bc-UuP0pq-6" value="" style="shape=tableRow;horizontal=0;startSize=0;swimlaneHead=0;swimlaneBody=0;strokeColor=inherit;top=0;left=0;bottom=0;right=0;collapsible=0;dropTarget=0;fillColor=none;points=[[0,0.5],[1,0.5]];portConstraint=eastwest;" parent="qK8E-2dmee1bc-UuP0pq-2" vertex="1">
          <mxGeometry y="40" width="160" height="40" as="geometry" />
        </mxCell>
        <mxCell id="qK8E-2dmee1bc-UuP0pq-7" value="0x34" style="shape=partialRectangle;html=1;whiteSpace=wrap;connectable=0;strokeColor=inherit;overflow=hidden;fillColor=none;top=0;left=0;bottom=0;right=0;pointerEvents=1;" parent="qK8E-2dmee1bc-UuP0pq-6" vertex="1">
          <mxGeometry width="80" height="40" as="geometry">
            <mxRectangle width="80" height="40" as="alternateBounds" />
          </mxGeometry>
        </mxCell>
        <mxCell id="qK8E-2dmee1bc-UuP0pq-8" value="0x12" style="shape=partialRectangle;html=1;whiteSpace=wrap;connectable=0;strokeColor=inherit;overflow=hidden;fillColor=none;top=0;left=0;bottom=0;right=0;pointerEvents=1;" parent="qK8E-2dmee1bc-UuP0pq-6" vertex="1">
          <mxGeometry x="80" width="80" height="40" as="geometry">
            <mxRectangle width="80" height="40" as="alternateBounds" />
          </mxGeometry>
        </mxCell>
        <mxCell id="BZ4Y8waS69euHN2otkhc-6" value="" style="shape=flexArrow;endArrow=classic;startArrow=classic;html=1;rounded=0;" edge="1" parent="1">
          <mxGeometry width="100" height="100" relative="1" as="geometry">
            <mxPoint x="46" y="169.97000000000003" as="sourcePoint" />
            <mxPoint x="182" y="170.01999999999998" as="targetPoint" />
          </mxGeometry>
        </mxCell>
        <mxCell id="BZ4Y8waS69euHN2otkhc-7" value="34 12&lt;br&gt;Little Endian bus" style="edgeLabel;html=1;align=center;verticalAlign=middle;resizable=0;points=[];" vertex="1" connectable="0" parent="BZ4Y8waS69euHN2otkhc-6">
          <mxGeometry x="0.07" y="-1" relative="1" as="geometry">
            <mxPoint x="-2" y="-21" as="offset" />
          </mxGeometry>
        </mxCell>
        <mxCell id="BZ4Y8waS69euHN2otkhc-12" value="Big Endian CPU&lt;br&gt;interprets as 0x3412" style="text;html=1;strokeColor=none;fillColor=none;align=center;verticalAlign=middle;whiteSpace=wrap;rounded=0;" vertex="1" parent="1">
          <mxGeometry x="122" y="290" width="120" height="40" as="geometry" />
        </mxCell>
        <mxCell id="BZ4Y8waS69euHN2otkhc-13" value="" style="shape=cross;whiteSpace=wrap;html=1;rotation=-45;fillColor=#FF0000;" vertex="1" parent="1">
          <mxGeometry x="162" y="330" width="40" height="40" as="geometry" />
        </mxCell>
        <mxCell id="BZ4Y8waS69euHN2otkhc-14" value="Little Endian CPU&lt;br&gt;interprets as 0x1234" style="text;html=1;strokeColor=none;fillColor=none;align=center;verticalAlign=middle;whiteSpace=wrap;rounded=0;" vertex="1" parent="1">
          <mxGeometry x="281" y="290" width="120" height="40" as="geometry" />
        </mxCell>
        <mxCell id="BZ4Y8waS69euHN2otkhc-15" value="" style="verticalLabelPosition=bottom;verticalAlign=top;html=1;shape=mxgraph.basic.tick;fillColor=#33FF33;" vertex="1" parent="1">
          <mxGeometry x="324" y="330" width="34" height="40" as="geometry" />
        </mxCell>
        <mxCell id="BZ4Y8waS69euHN2otkhc-17" value="" style="endArrow=classic;startArrow=classic;html=1;rounded=0;exitX=0.5;exitY=0;exitDx=0;exitDy=0;entryX=0.5;entryY=0;entryDx=0;entryDy=0;" edge="1" parent="1" source="BZ4Y8waS69euHN2otkhc-12" target="BZ4Y8waS69euHN2otkhc-14">
          <mxGeometry width="50" height="50" relative="1" as="geometry">
            <mxPoint x="222" y="290" as="sourcePoint" />
            <mxPoint x="302" y="290" as="targetPoint" />
            <Array as="points">
              <mxPoint x="262" y="210" />
            </Array>
          </mxGeometry>
        </mxCell>
        <mxCell id="BZ4Y8waS69euHN2otkhc-20" value="" style="shape=table;startSize=0;container=1;collapsible=0;childLayout=tableLayout;" vertex="1" parent="1">
          <mxGeometry x="136" y="660" width="160" height="80" as="geometry" />
        </mxCell>
        <mxCell id="BZ4Y8waS69euHN2otkhc-21" value="" style="shape=tableRow;horizontal=0;startSize=0;swimlaneHead=0;swimlaneBody=0;strokeColor=inherit;top=0;left=0;bottom=0;right=0;collapsible=0;dropTarget=0;fillColor=none;points=[[0,0.5],[1,0.5]];portConstraint=eastwest;" vertex="1" parent="BZ4Y8waS69euHN2otkhc-20">
          <mxGeometry width="160" height="40" as="geometry" />
        </mxCell>
        <mxCell id="BZ4Y8waS69euHN2otkhc-22" value="Address 0" style="shape=partialRectangle;html=1;whiteSpace=wrap;connectable=0;strokeColor=inherit;overflow=hidden;fillColor=none;top=0;left=0;bottom=0;right=0;pointerEvents=1;" vertex="1" parent="BZ4Y8waS69euHN2otkhc-21">
          <mxGeometry width="80" height="40" as="geometry">
            <mxRectangle width="80" height="40" as="alternateBounds" />
          </mxGeometry>
        </mxCell>
        <mxCell id="BZ4Y8waS69euHN2otkhc-23" value="Address 1" style="shape=partialRectangle;html=1;whiteSpace=wrap;connectable=0;strokeColor=inherit;overflow=hidden;fillColor=none;top=0;left=0;bottom=0;right=0;pointerEvents=1;" vertex="1" parent="BZ4Y8waS69euHN2otkhc-21">
          <mxGeometry x="80" width="80" height="40" as="geometry">
            <mxRectangle width="80" height="40" as="alternateBounds" />
          </mxGeometry>
        </mxCell>
        <mxCell id="BZ4Y8waS69euHN2otkhc-24" value="" style="shape=tableRow;horizontal=0;startSize=0;swimlaneHead=0;swimlaneBody=0;strokeColor=inherit;top=0;left=0;bottom=0;right=0;collapsible=0;dropTarget=0;fillColor=none;points=[[0,0.5],[1,0.5]];portConstraint=eastwest;" vertex="1" parent="BZ4Y8waS69euHN2otkhc-20">
          <mxGeometry y="40" width="160" height="40" as="geometry" />
        </mxCell>
        <mxCell id="BZ4Y8waS69euHN2otkhc-25" value="0x12" style="shape=partialRectangle;html=1;whiteSpace=wrap;connectable=0;strokeColor=inherit;overflow=hidden;fillColor=none;top=0;left=0;bottom=0;right=0;pointerEvents=1;" vertex="1" parent="BZ4Y8waS69euHN2otkhc-24">
          <mxGeometry width="80" height="40" as="geometry">
            <mxRectangle width="80" height="40" as="alternateBounds" />
          </mxGeometry>
        </mxCell>
        <mxCell id="BZ4Y8waS69euHN2otkhc-26" value="0x34" style="shape=partialRectangle;html=1;whiteSpace=wrap;connectable=0;strokeColor=inherit;overflow=hidden;fillColor=none;top=0;left=0;bottom=0;right=0;pointerEvents=1;" vertex="1" parent="BZ4Y8waS69euHN2otkhc-24">
          <mxGeometry x="80" width="80" height="40" as="geometry">
            <mxRectangle width="80" height="40" as="alternateBounds" />
          </mxGeometry>
        </mxCell>
        <mxCell id="BZ4Y8waS69euHN2otkhc-27" value="" style="shape=flexArrow;endArrow=classic;startArrow=classic;html=1;rounded=0;" edge="1" parent="1">
          <mxGeometry width="100" height="100" relative="1" as="geometry">
            <mxPoint x="80" y="519.97" as="sourcePoint" />
            <mxPoint x="216" y="520.02" as="targetPoint" />
          </mxGeometry>
        </mxCell>
        <mxCell id="BZ4Y8waS69euHN2otkhc-28" value="34 12&lt;br&gt;Little Endian bus" style="edgeLabel;html=1;align=center;verticalAlign=middle;resizable=0;points=[];" vertex="1" connectable="0" parent="BZ4Y8waS69euHN2otkhc-27">
          <mxGeometry x="0.07" y="-1" relative="1" as="geometry">
            <mxPoint x="-2" y="-21" as="offset" />
          </mxGeometry>
        </mxCell>
        <mxCell id="BZ4Y8waS69euHN2otkhc-29" value="Big Endian CPU&lt;br&gt;interprets as 0x1234" style="text;html=1;strokeColor=none;fillColor=none;align=center;verticalAlign=middle;whiteSpace=wrap;rounded=0;" vertex="1" parent="1">
          <mxGeometry x="156" y="760" width="120" height="40" as="geometry" />
        </mxCell>
        <mxCell id="BZ4Y8waS69euHN2otkhc-31" value="Little Endian CPU&lt;br&gt;interprets as 0x1234" style="text;html=1;strokeColor=none;fillColor=none;align=center;verticalAlign=middle;whiteSpace=wrap;rounded=0;" vertex="1" parent="1">
          <mxGeometry x="396" y="760" width="120" height="40" as="geometry" />
        </mxCell>
        <mxCell id="BZ4Y8waS69euHN2otkhc-32" value="" style="verticalLabelPosition=bottom;verticalAlign=top;html=1;shape=mxgraph.basic.tick;fillColor=#33FF33;" vertex="1" parent="1">
          <mxGeometry x="439" y="800" width="34" height="40" as="geometry" />
        </mxCell>
        <mxCell id="BZ4Y8waS69euHN2otkhc-33" value="" style="endArrow=classic;startArrow=classic;html=1;rounded=0;exitX=0.5;exitY=0;exitDx=0;exitDy=0;entryX=0.5;entryY=0;entryDx=0;entryDy=0;" edge="1" parent="1" source="BZ4Y8waS69euHN2otkhc-36" target="BZ4Y8waS69euHN2otkhc-45">
          <mxGeometry width="50" height="50" relative="1" as="geometry">
            <mxPoint x="216" y="620" as="sourcePoint" />
            <mxPoint x="456" y="620" as="targetPoint" />
            <Array as="points">
              <mxPoint x="336" y="540" />
            </Array>
          </mxGeometry>
        </mxCell>
        <mxCell id="BZ4Y8waS69euHN2otkhc-35" value="&lt;b&gt;&lt;font style=&quot;font-size: 14px;&quot;&gt;ECU_LE16_TO_CPU_RUNTIME()&lt;/font&gt;&lt;/b&gt;" style="rounded=1;whiteSpace=wrap;html=1;" vertex="1" parent="1">
          <mxGeometry x="216" y="500" width="240" height="40" as="geometry" />
        </mxCell>
        <mxCell id="BZ4Y8waS69euHN2otkhc-36" value="Big Endian CPU" style="text;html=1;strokeColor=none;fillColor=none;align=center;verticalAlign=middle;whiteSpace=wrap;rounded=0;" vertex="1" parent="1">
          <mxGeometry x="148.5" y="630" width="135" height="30" as="geometry" />
        </mxCell>
        <mxCell id="BZ4Y8waS69euHN2otkhc-38" value="" style="shape=table;startSize=0;container=1;collapsible=0;childLayout=tableLayout;" vertex="1" parent="1">
          <mxGeometry x="376" y="660" width="160" height="80" as="geometry" />
        </mxCell>
        <mxCell id="BZ4Y8waS69euHN2otkhc-39" value="" style="shape=tableRow;horizontal=0;startSize=0;swimlaneHead=0;swimlaneBody=0;strokeColor=inherit;top=0;left=0;bottom=0;right=0;collapsible=0;dropTarget=0;fillColor=none;points=[[0,0.5],[1,0.5]];portConstraint=eastwest;" vertex="1" parent="BZ4Y8waS69euHN2otkhc-38">
          <mxGeometry width="160" height="40" as="geometry" />
        </mxCell>
        <mxCell id="BZ4Y8waS69euHN2otkhc-40" value="Address 0" style="shape=partialRectangle;html=1;whiteSpace=wrap;connectable=0;strokeColor=inherit;overflow=hidden;fillColor=none;top=0;left=0;bottom=0;right=0;pointerEvents=1;" vertex="1" parent="BZ4Y8waS69euHN2otkhc-39">
          <mxGeometry width="80" height="40" as="geometry">
            <mxRectangle width="80" height="40" as="alternateBounds" />
          </mxGeometry>
        </mxCell>
        <mxCell id="BZ4Y8waS69euHN2otkhc-41" value="Address 1" style="shape=partialRectangle;html=1;whiteSpace=wrap;connectable=0;strokeColor=inherit;overflow=hidden;fillColor=none;top=0;left=0;bottom=0;right=0;pointerEvents=1;" vertex="1" parent="BZ4Y8waS69euHN2otkhc-39">
          <mxGeometry x="80" width="80" height="40" as="geometry">
            <mxRectangle width="80" height="40" as="alternateBounds" />
          </mxGeometry>
        </mxCell>
        <mxCell id="BZ4Y8waS69euHN2otkhc-42" value="" style="shape=tableRow;horizontal=0;startSize=0;swimlaneHead=0;swimlaneBody=0;strokeColor=inherit;top=0;left=0;bottom=0;right=0;collapsible=0;dropTarget=0;fillColor=none;points=[[0,0.5],[1,0.5]];portConstraint=eastwest;" vertex="1" parent="BZ4Y8waS69euHN2otkhc-38">
          <mxGeometry y="40" width="160" height="40" as="geometry" />
        </mxCell>
        <mxCell id="BZ4Y8waS69euHN2otkhc-43" value="0x34" style="shape=partialRectangle;html=1;whiteSpace=wrap;connectable=0;strokeColor=inherit;overflow=hidden;fillColor=none;top=0;left=0;bottom=0;right=0;pointerEvents=1;" vertex="1" parent="BZ4Y8waS69euHN2otkhc-42">
          <mxGeometry width="80" height="40" as="geometry">
            <mxRectangle width="80" height="40" as="alternateBounds" />
          </mxGeometry>
        </mxCell>
        <mxCell id="BZ4Y8waS69euHN2otkhc-44" value="0x12" style="shape=partialRectangle;html=1;whiteSpace=wrap;connectable=0;strokeColor=inherit;overflow=hidden;fillColor=none;top=0;left=0;bottom=0;right=0;pointerEvents=1;" vertex="1" parent="BZ4Y8waS69euHN2otkhc-42">
          <mxGeometry x="80" width="80" height="40" as="geometry">
            <mxRectangle width="80" height="40" as="alternateBounds" />
          </mxGeometry>
        </mxCell>
        <mxCell id="BZ4Y8waS69euHN2otkhc-45" value="Little Endian CPU" style="text;html=1;strokeColor=none;fillColor=none;align=center;verticalAlign=middle;whiteSpace=wrap;rounded=0;" vertex="1" parent="1">
          <mxGeometry x="388.5" y="630" width="135" height="30" as="geometry" />
        </mxCell>
        <mxCell id="BZ4Y8waS69euHN2otkhc-47" value="" style="verticalLabelPosition=bottom;verticalAlign=top;html=1;shape=mxgraph.basic.tick;fillColor=#33FF33;" vertex="1" parent="1">
          <mxGeometry x="199" y="800" width="34" height="40" as="geometry" />
        </mxCell>
      </root>
    </mxGraphModel>
  </diagram>
  <diagram name="cpu_to_bus" id="ijCujnGtGSSMGPStKjNU">
    <mxGraphModel dx="-352" dy="291" grid="1" gridSize="10" guides="1" tooltips="1" connect="1" arrows="1" fold="1" page="1" pageScale="1" pageWidth="850" pageHeight="1100" math="0" shadow="0">
      <root>
        <mxCell id="0" />
        <mxCell id="1" parent="0" />
        <mxCell id="X6_42Y2dgoRStFJhs5ZS-90" value="" style="rounded=1;whiteSpace=wrap;html=1;" vertex="1" parent="1">
          <mxGeometry x="920" y="580" width="500" height="460" as="geometry" />
        </mxCell>
        <mxCell id="X6_42Y2dgoRStFJhs5ZS-2" value="" style="rounded=1;whiteSpace=wrap;html=1;" vertex="1" parent="1">
          <mxGeometry x="920" y="40" width="500" height="460" as="geometry" />
        </mxCell>
        <mxCell id="X6_42Y2dgoRStFJhs5ZS-43" value="" style="shape=flexArrow;endArrow=classic;startArrow=classic;html=1;rounded=0;entryX=0.5;entryY=0;entryDx=0;entryDy=0;exitX=0.5;exitY=0;exitDx=0;exitDy=0;" edge="1" parent="1" source="X6_42Y2dgoRStFJhs5ZS-53" target="X6_42Y2dgoRStFJhs5ZS-61">
          <mxGeometry width="100" height="100" relative="1" as="geometry">
            <mxPoint x="1070" y="260" as="sourcePoint" />
            <mxPoint x="1270" y="260" as="targetPoint" />
            <Array as="points">
              <mxPoint x="1170" y="110" />
            </Array>
          </mxGeometry>
        </mxCell>
        <mxCell id="X6_42Y2dgoRStFJhs5ZS-44" value="Send 0x1234 over Little Endian bus" style="edgeLabel;html=1;align=center;verticalAlign=middle;resizable=0;points=[];" vertex="1" connectable="0" parent="X6_42Y2dgoRStFJhs5ZS-43">
          <mxGeometry x="0.07" y="-1" relative="1" as="geometry">
            <mxPoint x="-9" y="29" as="offset" />
          </mxGeometry>
        </mxCell>
        <mxCell id="X6_42Y2dgoRStFJhs5ZS-45" value="&lt;b&gt;&lt;font style=&quot;font-size: 14px;&quot;&gt;0x1234&lt;/font&gt;&lt;/b&gt;" style="rounded=1;whiteSpace=wrap;html=1;" vertex="1" parent="1">
          <mxGeometry x="1030" y="60" width="280" height="40" as="geometry" />
        </mxCell>
        <mxCell id="X6_42Y2dgoRStFJhs5ZS-46" value="" style="shape=table;startSize=0;container=1;collapsible=0;childLayout=tableLayout;" vertex="1" parent="1">
          <mxGeometry x="950" y="290" width="160" height="80" as="geometry" />
        </mxCell>
        <mxCell id="X6_42Y2dgoRStFJhs5ZS-47" value="" style="shape=tableRow;horizontal=0;startSize=0;swimlaneHead=0;swimlaneBody=0;strokeColor=inherit;top=0;left=0;bottom=0;right=0;collapsible=0;dropTarget=0;fillColor=none;points=[[0,0.5],[1,0.5]];portConstraint=eastwest;" vertex="1" parent="X6_42Y2dgoRStFJhs5ZS-46">
          <mxGeometry width="160" height="40" as="geometry" />
        </mxCell>
        <mxCell id="X6_42Y2dgoRStFJhs5ZS-48" value="Address 0" style="shape=partialRectangle;html=1;whiteSpace=wrap;connectable=0;strokeColor=inherit;overflow=hidden;fillColor=none;top=0;left=0;bottom=0;right=0;pointerEvents=1;" vertex="1" parent="X6_42Y2dgoRStFJhs5ZS-47">
          <mxGeometry width="81" height="40" as="geometry">
            <mxRectangle width="81" height="40" as="alternateBounds" />
          </mxGeometry>
        </mxCell>
        <mxCell id="X6_42Y2dgoRStFJhs5ZS-49" value="Address 1" style="shape=partialRectangle;html=1;whiteSpace=wrap;connectable=0;strokeColor=inherit;overflow=hidden;fillColor=none;top=0;left=0;bottom=0;right=0;pointerEvents=1;" vertex="1" parent="X6_42Y2dgoRStFJhs5ZS-47">
          <mxGeometry x="81" width="79" height="40" as="geometry">
            <mxRectangle width="79" height="40" as="alternateBounds" />
          </mxGeometry>
        </mxCell>
        <mxCell id="X6_42Y2dgoRStFJhs5ZS-50" value="" style="shape=tableRow;horizontal=0;startSize=0;swimlaneHead=0;swimlaneBody=0;strokeColor=inherit;top=0;left=0;bottom=0;right=0;collapsible=0;dropTarget=0;fillColor=none;points=[[0,0.5],[1,0.5]];portConstraint=eastwest;" vertex="1" parent="X6_42Y2dgoRStFJhs5ZS-46">
          <mxGeometry y="40" width="160" height="40" as="geometry" />
        </mxCell>
        <mxCell id="X6_42Y2dgoRStFJhs5ZS-51" value="0x12" style="shape=partialRectangle;html=1;whiteSpace=wrap;connectable=0;strokeColor=inherit;overflow=hidden;fillColor=none;top=0;left=0;bottom=0;right=0;pointerEvents=1;" vertex="1" parent="X6_42Y2dgoRStFJhs5ZS-50">
          <mxGeometry width="81" height="40" as="geometry">
            <mxRectangle width="81" height="40" as="alternateBounds" />
          </mxGeometry>
        </mxCell>
        <mxCell id="X6_42Y2dgoRStFJhs5ZS-52" value="0x34" style="shape=partialRectangle;html=1;whiteSpace=wrap;connectable=0;strokeColor=inherit;overflow=hidden;fillColor=none;top=0;left=0;bottom=0;right=0;pointerEvents=1;" vertex="1" parent="X6_42Y2dgoRStFJhs5ZS-50">
          <mxGeometry x="81" width="79" height="40" as="geometry">
            <mxRectangle width="79" height="40" as="alternateBounds" />
          </mxGeometry>
        </mxCell>
        <mxCell id="X6_42Y2dgoRStFJhs5ZS-53" value="Big Endian CPU" style="text;html=1;strokeColor=none;fillColor=none;align=center;verticalAlign=middle;whiteSpace=wrap;rounded=0;" vertex="1" parent="1">
          <mxGeometry x="950" y="260" width="160" height="40" as="geometry" />
        </mxCell>
        <mxCell id="X6_42Y2dgoRStFJhs5ZS-54" value="" style="shape=table;startSize=0;container=1;collapsible=0;childLayout=tableLayout;" vertex="1" parent="1">
          <mxGeometry x="1230" y="290" width="160" height="80" as="geometry" />
        </mxCell>
        <mxCell id="X6_42Y2dgoRStFJhs5ZS-55" value="" style="shape=tableRow;horizontal=0;startSize=0;swimlaneHead=0;swimlaneBody=0;strokeColor=inherit;top=0;left=0;bottom=0;right=0;collapsible=0;dropTarget=0;fillColor=none;points=[[0,0.5],[1,0.5]];portConstraint=eastwest;" vertex="1" parent="X6_42Y2dgoRStFJhs5ZS-54">
          <mxGeometry width="160" height="40" as="geometry" />
        </mxCell>
        <mxCell id="X6_42Y2dgoRStFJhs5ZS-56" value="Address 0" style="shape=partialRectangle;html=1;whiteSpace=wrap;connectable=0;strokeColor=inherit;overflow=hidden;fillColor=none;top=0;left=0;bottom=0;right=0;pointerEvents=1;" vertex="1" parent="X6_42Y2dgoRStFJhs5ZS-55">
          <mxGeometry width="81" height="40" as="geometry">
            <mxRectangle width="81" height="40" as="alternateBounds" />
          </mxGeometry>
        </mxCell>
        <mxCell id="X6_42Y2dgoRStFJhs5ZS-57" value="Address 1" style="shape=partialRectangle;html=1;whiteSpace=wrap;connectable=0;strokeColor=inherit;overflow=hidden;fillColor=none;top=0;left=0;bottom=0;right=0;pointerEvents=1;" vertex="1" parent="X6_42Y2dgoRStFJhs5ZS-55">
          <mxGeometry x="81" width="79" height="40" as="geometry">
            <mxRectangle width="79" height="40" as="alternateBounds" />
          </mxGeometry>
        </mxCell>
        <mxCell id="X6_42Y2dgoRStFJhs5ZS-58" value="" style="shape=tableRow;horizontal=0;startSize=0;swimlaneHead=0;swimlaneBody=0;strokeColor=inherit;top=0;left=0;bottom=0;right=0;collapsible=0;dropTarget=0;fillColor=none;points=[[0,0.5],[1,0.5]];portConstraint=eastwest;" vertex="1" parent="X6_42Y2dgoRStFJhs5ZS-54">
          <mxGeometry y="40" width="160" height="40" as="geometry" />
        </mxCell>
        <mxCell id="X6_42Y2dgoRStFJhs5ZS-59" value="0x34" style="shape=partialRectangle;html=1;whiteSpace=wrap;connectable=0;strokeColor=inherit;overflow=hidden;fillColor=none;top=0;left=0;bottom=0;right=0;pointerEvents=1;" vertex="1" parent="X6_42Y2dgoRStFJhs5ZS-58">
          <mxGeometry width="81" height="40" as="geometry">
            <mxRectangle width="81" height="40" as="alternateBounds" />
          </mxGeometry>
        </mxCell>
        <mxCell id="X6_42Y2dgoRStFJhs5ZS-60" value="0x12" style="shape=partialRectangle;html=1;whiteSpace=wrap;connectable=0;strokeColor=inherit;overflow=hidden;fillColor=none;top=0;left=0;bottom=0;right=0;pointerEvents=1;" vertex="1" parent="X6_42Y2dgoRStFJhs5ZS-58">
          <mxGeometry x="81" width="79" height="40" as="geometry">
            <mxRectangle width="79" height="40" as="alternateBounds" />
          </mxGeometry>
        </mxCell>
        <mxCell id="X6_42Y2dgoRStFJhs5ZS-61" value="Little Endian CPU" style="text;html=1;strokeColor=none;fillColor=none;align=center;verticalAlign=middle;whiteSpace=wrap;rounded=0;" vertex="1" parent="1">
          <mxGeometry x="1230" y="260" width="160" height="40" as="geometry" />
        </mxCell>
        <mxCell id="X6_42Y2dgoRStFJhs5ZS-62" value="Big Endian CPU&lt;br&gt;sends 12 34" style="text;html=1;strokeColor=none;fillColor=none;align=center;verticalAlign=middle;whiteSpace=wrap;rounded=0;" vertex="1" parent="1">
          <mxGeometry x="970" y="390" width="120" height="40" as="geometry" />
        </mxCell>
        <mxCell id="X6_42Y2dgoRStFJhs5ZS-63" value="" style="shape=cross;whiteSpace=wrap;html=1;rotation=-45;fillColor=#FF0000;" vertex="1" parent="1">
          <mxGeometry x="1010" y="430" width="40" height="40" as="geometry" />
        </mxCell>
        <mxCell id="X6_42Y2dgoRStFJhs5ZS-64" value="Little Endian CPU&lt;br&gt;sends 34 12" style="text;html=1;strokeColor=none;fillColor=none;align=center;verticalAlign=middle;whiteSpace=wrap;rounded=0;" vertex="1" parent="1">
          <mxGeometry x="1250" y="390" width="120" height="40" as="geometry" />
        </mxCell>
        <mxCell id="X6_42Y2dgoRStFJhs5ZS-65" value="" style="verticalLabelPosition=bottom;verticalAlign=top;html=1;shape=mxgraph.basic.tick;fillColor=#33FF33;" vertex="1" parent="1">
          <mxGeometry x="1293" y="430" width="34" height="40" as="geometry" />
        </mxCell>
        <mxCell id="X6_42Y2dgoRStFJhs5ZS-66" value="" style="shape=flexArrow;endArrow=classic;startArrow=classic;html=1;rounded=0;entryX=0.5;entryY=0;entryDx=0;entryDy=0;exitX=0.5;exitY=0;exitDx=0;exitDy=0;" edge="1" parent="1" source="X6_42Y2dgoRStFJhs5ZS-76" target="X6_42Y2dgoRStFJhs5ZS-84">
          <mxGeometry width="100" height="100" relative="1" as="geometry">
            <mxPoint x="1070" y="800" as="sourcePoint" />
            <mxPoint x="1270" y="800" as="targetPoint" />
            <Array as="points">
              <mxPoint x="1170" y="650" />
            </Array>
          </mxGeometry>
        </mxCell>
        <mxCell id="X6_42Y2dgoRStFJhs5ZS-67" value="Send 0x1234 over Little Endian bus" style="edgeLabel;html=1;align=center;verticalAlign=middle;resizable=0;points=[];" vertex="1" connectable="0" parent="X6_42Y2dgoRStFJhs5ZS-66">
          <mxGeometry x="0.07" y="-1" relative="1" as="geometry">
            <mxPoint x="-9" y="29" as="offset" />
          </mxGeometry>
        </mxCell>
        <mxCell id="X6_42Y2dgoRStFJhs5ZS-68" value="&lt;b&gt;&lt;font style=&quot;font-size: 14px;&quot;&gt;ECU_CPU_TO_LE16_RUNTIME(0x1234)&lt;/font&gt;&lt;/b&gt;" style="rounded=1;whiteSpace=wrap;html=1;" vertex="1" parent="1">
          <mxGeometry x="1030" y="600" width="280" height="40" as="geometry" />
        </mxCell>
        <mxCell id="X6_42Y2dgoRStFJhs5ZS-69" value="" style="shape=table;startSize=0;container=1;collapsible=0;childLayout=tableLayout;" vertex="1" parent="1">
          <mxGeometry x="950" y="830" width="160" height="80" as="geometry" />
        </mxCell>
        <mxCell id="X6_42Y2dgoRStFJhs5ZS-70" value="" style="shape=tableRow;horizontal=0;startSize=0;swimlaneHead=0;swimlaneBody=0;strokeColor=inherit;top=0;left=0;bottom=0;right=0;collapsible=0;dropTarget=0;fillColor=none;points=[[0,0.5],[1,0.5]];portConstraint=eastwest;" vertex="1" parent="X6_42Y2dgoRStFJhs5ZS-69">
          <mxGeometry width="160" height="40" as="geometry" />
        </mxCell>
        <mxCell id="X6_42Y2dgoRStFJhs5ZS-71" value="Address 0" style="shape=partialRectangle;html=1;whiteSpace=wrap;connectable=0;strokeColor=inherit;overflow=hidden;fillColor=none;top=0;left=0;bottom=0;right=0;pointerEvents=1;" vertex="1" parent="X6_42Y2dgoRStFJhs5ZS-70">
          <mxGeometry width="81" height="40" as="geometry">
            <mxRectangle width="81" height="40" as="alternateBounds" />
          </mxGeometry>
        </mxCell>
        <mxCell id="X6_42Y2dgoRStFJhs5ZS-72" value="Address 1" style="shape=partialRectangle;html=1;whiteSpace=wrap;connectable=0;strokeColor=inherit;overflow=hidden;fillColor=none;top=0;left=0;bottom=0;right=0;pointerEvents=1;" vertex="1" parent="X6_42Y2dgoRStFJhs5ZS-70">
          <mxGeometry x="81" width="79" height="40" as="geometry">
            <mxRectangle width="79" height="40" as="alternateBounds" />
          </mxGeometry>
        </mxCell>
        <mxCell id="X6_42Y2dgoRStFJhs5ZS-73" value="" style="shape=tableRow;horizontal=0;startSize=0;swimlaneHead=0;swimlaneBody=0;strokeColor=inherit;top=0;left=0;bottom=0;right=0;collapsible=0;dropTarget=0;fillColor=none;points=[[0,0.5],[1,0.5]];portConstraint=eastwest;" vertex="1" parent="X6_42Y2dgoRStFJhs5ZS-69">
          <mxGeometry y="40" width="160" height="40" as="geometry" />
        </mxCell>
        <mxCell id="X6_42Y2dgoRStFJhs5ZS-74" value="0x34" style="shape=partialRectangle;html=1;whiteSpace=wrap;connectable=0;strokeColor=inherit;overflow=hidden;fillColor=none;top=0;left=0;bottom=0;right=0;pointerEvents=1;" vertex="1" parent="X6_42Y2dgoRStFJhs5ZS-73">
          <mxGeometry width="81" height="40" as="geometry">
            <mxRectangle width="81" height="40" as="alternateBounds" />
          </mxGeometry>
        </mxCell>
        <mxCell id="X6_42Y2dgoRStFJhs5ZS-75" value="0x12" style="shape=partialRectangle;html=1;whiteSpace=wrap;connectable=0;strokeColor=inherit;overflow=hidden;fillColor=none;top=0;left=0;bottom=0;right=0;pointerEvents=1;" vertex="1" parent="X6_42Y2dgoRStFJhs5ZS-73">
          <mxGeometry x="81" width="79" height="40" as="geometry">
            <mxRectangle width="79" height="40" as="alternateBounds" />
          </mxGeometry>
        </mxCell>
        <mxCell id="X6_42Y2dgoRStFJhs5ZS-76" value="Big Endian CPU" style="text;html=1;strokeColor=none;fillColor=none;align=center;verticalAlign=middle;whiteSpace=wrap;rounded=0;" vertex="1" parent="1">
          <mxGeometry x="950" y="800" width="160" height="40" as="geometry" />
        </mxCell>
        <mxCell id="X6_42Y2dgoRStFJhs5ZS-77" value="" style="shape=table;startSize=0;container=1;collapsible=0;childLayout=tableLayout;" vertex="1" parent="1">
          <mxGeometry x="1230" y="830" width="160" height="80" as="geometry" />
        </mxCell>
        <mxCell id="X6_42Y2dgoRStFJhs5ZS-78" value="" style="shape=tableRow;horizontal=0;startSize=0;swimlaneHead=0;swimlaneBody=0;strokeColor=inherit;top=0;left=0;bottom=0;right=0;collapsible=0;dropTarget=0;fillColor=none;points=[[0,0.5],[1,0.5]];portConstraint=eastwest;" vertex="1" parent="X6_42Y2dgoRStFJhs5ZS-77">
          <mxGeometry width="160" height="40" as="geometry" />
        </mxCell>
        <mxCell id="X6_42Y2dgoRStFJhs5ZS-79" value="Address 0" style="shape=partialRectangle;html=1;whiteSpace=wrap;connectable=0;strokeColor=inherit;overflow=hidden;fillColor=none;top=0;left=0;bottom=0;right=0;pointerEvents=1;" vertex="1" parent="X6_42Y2dgoRStFJhs5ZS-78">
          <mxGeometry width="81" height="40" as="geometry">
            <mxRectangle width="81" height="40" as="alternateBounds" />
          </mxGeometry>
        </mxCell>
        <mxCell id="X6_42Y2dgoRStFJhs5ZS-80" value="Address 1" style="shape=partialRectangle;html=1;whiteSpace=wrap;connectable=0;strokeColor=inherit;overflow=hidden;fillColor=none;top=0;left=0;bottom=0;right=0;pointerEvents=1;" vertex="1" parent="X6_42Y2dgoRStFJhs5ZS-78">
          <mxGeometry x="81" width="79" height="40" as="geometry">
            <mxRectangle width="79" height="40" as="alternateBounds" />
          </mxGeometry>
        </mxCell>
        <mxCell id="X6_42Y2dgoRStFJhs5ZS-81" value="" style="shape=tableRow;horizontal=0;startSize=0;swimlaneHead=0;swimlaneBody=0;strokeColor=inherit;top=0;left=0;bottom=0;right=0;collapsible=0;dropTarget=0;fillColor=none;points=[[0,0.5],[1,0.5]];portConstraint=eastwest;" vertex="1" parent="X6_42Y2dgoRStFJhs5ZS-77">
          <mxGeometry y="40" width="160" height="40" as="geometry" />
        </mxCell>
        <mxCell id="X6_42Y2dgoRStFJhs5ZS-82" value="0x34" style="shape=partialRectangle;html=1;whiteSpace=wrap;connectable=0;strokeColor=inherit;overflow=hidden;fillColor=none;top=0;left=0;bottom=0;right=0;pointerEvents=1;" vertex="1" parent="X6_42Y2dgoRStFJhs5ZS-81">
          <mxGeometry width="81" height="40" as="geometry">
            <mxRectangle width="81" height="40" as="alternateBounds" />
          </mxGeometry>
        </mxCell>
        <mxCell id="X6_42Y2dgoRStFJhs5ZS-83" value="0x12" style="shape=partialRectangle;html=1;whiteSpace=wrap;connectable=0;strokeColor=inherit;overflow=hidden;fillColor=none;top=0;left=0;bottom=0;right=0;pointerEvents=1;" vertex="1" parent="X6_42Y2dgoRStFJhs5ZS-81">
          <mxGeometry x="81" width="79" height="40" as="geometry">
            <mxRectangle width="79" height="40" as="alternateBounds" />
          </mxGeometry>
        </mxCell>
        <mxCell id="X6_42Y2dgoRStFJhs5ZS-84" value="Little Endian CPU" style="text;html=1;strokeColor=none;fillColor=none;align=center;verticalAlign=middle;whiteSpace=wrap;rounded=0;" vertex="1" parent="1">
          <mxGeometry x="1230" y="800" width="160" height="40" as="geometry" />
        </mxCell>
        <mxCell id="X6_42Y2dgoRStFJhs5ZS-85" value="Big Endian CPU&lt;br&gt;sends 34 12" style="text;html=1;strokeColor=none;fillColor=none;align=center;verticalAlign=middle;whiteSpace=wrap;rounded=0;" vertex="1" parent="1">
          <mxGeometry x="970" y="930" width="120" height="40" as="geometry" />
        </mxCell>
        <mxCell id="X6_42Y2dgoRStFJhs5ZS-87" value="Little Endian CPU&lt;br&gt;sends 34 12" style="text;html=1;strokeColor=none;fillColor=none;align=center;verticalAlign=middle;whiteSpace=wrap;rounded=0;" vertex="1" parent="1">
          <mxGeometry x="1250" y="930" width="120" height="40" as="geometry" />
        </mxCell>
        <mxCell id="X6_42Y2dgoRStFJhs5ZS-88" value="" style="verticalLabelPosition=bottom;verticalAlign=top;html=1;shape=mxgraph.basic.tick;fillColor=#33FF33;" vertex="1" parent="1">
          <mxGeometry x="1293" y="970" width="34" height="40" as="geometry" />
        </mxCell>
        <mxCell id="X6_42Y2dgoRStFJhs5ZS-89" value="" style="verticalLabelPosition=bottom;verticalAlign=top;html=1;shape=mxgraph.basic.tick;fillColor=#33FF33;" vertex="1" parent="1">
          <mxGeometry x="1013" y="970" width="34" height="40" as="geometry" />
        </mxCell>
      </root>
    </mxGraphModel>
  </diagram>
</mxfile>
